<svg width="24" height="24" viewBox="0 0 24 24" fill="none" xmlns="http://www.w3.org/2000/svg">
<path fill-rule="evenodd" clip-rule="evenodd" d="M14.9184 5.78188C15.5837 4.99236 15.9175 4.13937 15.9175 3.2258V3.22579C15.9175 3.10462 15.9118 2.98248 15.8983 2.86035C15.4349 2.88439 14.9421 3.0248 14.4212 3.27868C13.8991 3.53641 13.4686 3.85949 13.1301 4.24805C12.4521 5.01548 12.0703 5.95406 12.0703 6.83109C12.0703 6.9523 12.0781 7.06765 12.0915 7.17725C13.1445 7.26283 14.1156 6.72047 14.9184 5.78188ZM18.4601 18.8618C18.839 18.3217 19.166 17.7342 19.4423 17.096C19.5561 16.8254 19.6633 16.5435 19.7647 16.2492C19.2968 16.053 18.8762 15.7768 18.4996 15.4193C17.6686 14.6492 17.2457 13.6793 17.2333 12.5137C17.2198 11.0173 17.8997 9.85083 19.2742 9.01801C18.5064 7.92653 17.3517 7.32068 15.8149 7.19665C15.2477 7.1485 14.5554 7.27073 13.7351 7.56593C12.8676 7.88424 12.3559 8.04391 12.2049 8.04391C12.003 8.04391 11.5424 7.90736 10.825 7.63809C10.1056 7.36973 9.52675 7.23318 9.0853 7.23318C8.27853 7.2466 7.52937 7.45633 6.83603 7.86789C6.14269 8.27946 5.58871 8.84008 5.1723 9.55079C4.64246 10.4356 4.37793 11.4914 4.37793 12.7156C4.37793 13.7844 4.57413 14.8882 4.96551 16.0282C5.33095 17.0836 5.79743 18.0094 6.36482 18.8077C6.89365 19.5553 7.33509 20.083 7.68802 20.3908C8.24098 20.905 8.79496 21.1496 9.35073 21.126C9.71618 21.1136 10.1942 20.9884 10.7875 20.7482C11.3799 20.5092 11.9338 20.3908 12.4502 20.3908C12.9426 20.3908 13.4811 20.5092 14.0671 20.7482C14.6512 20.9884 15.153 21.1068 15.5691 21.1068C16.1486 21.0933 16.6899 20.8553 17.195 20.3908C17.5209 20.1078 17.9437 19.5981 18.4601 18.8618Z" fill="black"/>
</svg>
