<svg width="214" height="71" viewBox="0 0 214 71" fill="none" xmlns="http://www.w3.org/2000/svg">
<path fill-rule="evenodd" clip-rule="evenodd" d="M128.115 17.8887V66.2807H120.222L119.668 61.5737C117.037 65.6577 112.815 67.0427 108.661 67.0427C98.622 67.0427 91.076 60.3957 91.076 49.1807C91.076 37.4117 98.484 31.3197 108.452 31.3197C112.052 31.3197 117.661 33.2577 119.668 36.7887V17.8887H128.115ZM99.523 49.1807C99.523 55.1337 103.815 59.2187 109.214 59.2187C114.739 59.2187 119.217 54.74 119.217 49.2152C119.217 43.6904 114.739 39.2117 109.214 39.2117C103.815 39.2117 99.523 43.0187 99.523 49.1807ZM77.44 32.1497H85.54V66.2807H77.578L77.163 61.2967C75.224 65.3117 69.894 67.2497 66.086 67.3187C55.978 67.3877 48.501 61.1577 48.501 49.1807C48.501 37.4117 56.325 31.2497 66.293 31.3197C70.863 31.3197 75.224 33.4657 77.163 36.8577L77.44 32.1497ZM56.948 49.1807C56.948 55.6887 61.448 59.5647 67.055 59.5647C80.347 59.5647 80.347 38.8647 67.055 38.8647C61.448 38.8657 56.948 42.6727 56.948 49.1807ZM170.621 32.1497H162.521L162.244 36.8577C160.305 33.4657 155.944 31.3197 151.374 31.3197C141.406 31.2497 133.583 37.4117 133.583 49.1807C133.583 61.1577 141.059 67.3877 151.166 67.3187C154.975 67.2497 160.305 65.3117 162.244 61.2967L162.658 66.2807H170.621V32.1497ZM152.136 59.5647C146.529 59.5647 142.029 55.6887 142.029 49.1807C142.029 42.6727 146.528 38.8657 152.136 38.8647C165.428 38.8647 165.428 59.5647 152.136 59.5647ZM213.198 17.8887V66.2807H205.306L204.752 61.5737C202.121 65.6577 197.898 67.0427 193.744 67.0427C183.705 67.0427 176.16 60.3957 176.16 49.1807C176.16 37.4117 183.567 31.3197 193.536 31.3197C197.136 31.3197 202.744 33.2577 204.752 36.7887V17.8887H213.198ZM184.605 49.1807C184.605 55.1337 188.898 59.2187 194.298 59.2187C199.823 59.2187 204.301 54.74 204.301 49.2152C204.301 43.6904 199.823 39.2117 194.298 39.2117C188.898 39.2117 184.603 43.0187 184.603 49.1807H184.605Z" fill="#1A0F00"/>
<path fill-rule="evenodd" clip-rule="evenodd" d="M53.564 4.572L45.725 0L37.886 4.572L45.725 9.144L53.564 4.572ZM54.598 15.024L46.598 19.596V10.451L54.598 5.878V15.024ZM24.9575 16.4231C22.1886 15.2845 18.9836 16.1008 17.0993 18.4552C15.158 20.881 15.117 24.3168 17 26.7882C18.8829 29.2596 22.2064 30.1321 25.0604 28.9043C27.9145 27.6765 29.5665 24.6636 29.067 21.597L29.14 21.701L37.84 22.832L25.208 16.532L24.9575 16.4231ZM47.398 31.537L46.582 24.595L45.621 25.614L45.2536 25.9963C40.1931 31.1766 33.54 34.5184 26.352 35.48C26.575 34.388 26.787 33.215 26.973 32.051L27.093 31.237H19.064L19.082 31.965L19.0812 32.1866C19.052 34.3291 18.2933 51.4124 0.992 61.891L0 62.507L7.714 66.547L8.019 66.388L8.56419 66.0682C10.7187 64.7245 18.553 59.0651 23.628 45.218L24.467 45.5149C43.0894 52.2828 43.0653 67.001 43.0134 68.4889L42.906 70.474L48.199 64.459L48.1572 63.7222C47.3558 52.2963 37.4429 44.9203 31.1701 41.3665L30.663 41.083C36.9475 39.6051 42.6821 36.3706 47.198 31.757L47.398 31.537ZM43.598 10.451L36.598 5.878V15.023L43.598 19.595V10.451ZM38.473 8.478L38.062 9.511L41.232 11.368L41.643 10.336L38.473 8.478Z" fill="#1A0F00"/>
</svg>
