<svg width="22" height="26" viewBox="0 0 22 26" fill="none" xmlns="http://www.w3.org/2000/svg">
<path fill-rule="evenodd" clip-rule="evenodd" d="M18 11.25C18.9283 11.25 19.8185 11.6187 20.4749 12.2751C21.1313 12.9315 21.5 13.8217 21.5 14.75V21.75C21.5 22.6783 21.1313 23.5685 20.4749 24.2249C19.8185 24.8813 18.9283 25.25 18 25.25H4C3.07174 25.25 2.1815 24.8813 1.52513 24.2249C0.868749 23.5685 0.5 22.6783 0.5 21.75V14.75C0.5 13.8217 0.868749 12.9315 1.52513 12.2751C2.1815 11.6187 3.07174 11.25 4 11.25V7.75C4 5.89348 4.7375 4.11301 6.05025 2.80025C7.36301 1.4875 9.14348 0.75 11 0.75C12.8565 0.75 14.637 1.4875 15.9497 2.80025C17.2625 4.11301 18 5.89348 18 7.75V11.25ZM11 3.08333C12.2377 3.08333 13.4247 3.575 14.2998 4.45017C15.175 5.32534 15.6667 6.51232 15.6667 7.75V11.25H6.33333V7.75C6.33333 6.51232 6.825 5.32534 7.70017 4.45017C8.57534 3.575 9.76232 3.08333 11 3.08333V3.08333ZM18 13.5833H4C3.69058 13.5833 3.39383 13.7062 3.17504 13.925C2.95625 14.1438 2.83333 14.4406 2.83333 14.75V21.75C2.83333 22.0594 2.95625 22.3562 3.17504 22.575C3.39383 22.7938 3.69058 22.9167 4 22.9167H18C18.3094 22.9167 18.6062 22.7938 18.825 22.575C19.0438 22.3562 19.1667 22.0594 19.1667 21.75V14.75C19.1667 14.4406 19.0438 14.1438 18.825 13.925C18.6062 13.7062 18.3094 13.5833 18 13.5833Z" fill="#ACACAC"/>
</svg>
