<svg width="38" height="38" viewBox="0 0 38 38" fill="none" xmlns="http://www.w3.org/2000/svg">
<circle cx="19" cy="19" r="18" stroke="#F2F2F2" stroke-width="2"/>
<path d="M28.1406 24.5312C27.3963 23.7812 25.5935 22.6867 24.7188 22.2456C23.5797 21.6718 23.486 21.6249 22.5906 22.2901C21.9935 22.734 21.5964 23.1306 20.8975 22.9815C20.1986 22.8324 18.6799 21.992 17.35 20.6663C16.0202 19.3407 15.131 17.7779 14.9814 17.0813C14.8319 16.3848 15.235 15.9924 15.6747 15.3938C16.2944 14.5501 16.2475 14.4095 15.7178 13.2704C15.3049 12.3845 14.1785 10.5985 13.4256 9.85791C12.6203 9.06244 12.6203 9.20306 12.1014 9.41869C11.679 9.59643 11.2737 9.81249 10.8906 10.0642C10.1406 10.5624 9.7244 10.9763 9.43331 11.5984C9.14221 12.2204 9.01143 13.6787 10.5147 16.4096C12.018 19.1406 13.0727 20.537 15.2556 22.7138C17.4386 24.8907 19.1172 26.0612 21.5711 27.4374C24.6067 29.1376 25.7711 28.8062 26.395 28.5156C27.0189 28.2249 27.4347 27.8124 27.9339 27.0624C28.1862 26.68 28.4028 26.2752 28.5808 25.8531C28.7969 25.336 28.9375 25.336 28.1406 24.5312Z" stroke="#ACACAC" stroke-width="2" stroke-miterlimit="10"/>
</svg>
